<svg width="156" height="128" viewBox="0 0 156 128" fill="none"
    xmlns="http://www.w3.org/2000/svg">
    <g filter="url(#filter0_ddddd_408_284)">
        <rect x="8" y="2" width="140" height="100" rx="36" fill="url(#paint0_linear_408_284)"/>
        <ellipse cx="124.728" cy="23.7279" rx="6" ry="12" transform="rotate(-45 124.728 23.7279)" fill="#B8E773"/>
        <ellipse cx="27.5" cy="26" rx="6" ry="7.5" transform="rotate(30 27.5 26)" fill="#B8E773"/>
        <g clip-path="url(#clip0_408_284)" filter="url(#filter1_dd_408_284)">
            <g filter="url(#filter2_d_408_284)">
                <path d="M94.5145 52.7205L97.9593 58.6875C100.135 62.454 98.8435 67.2713 95.0793 69.4448C93.88 70.1355 92.5232 70.5 91.1417 70.5H86.5V75L75.25 67.125L86.5 59.25V63.75H91.1395C91.3375 63.75 91.531 63.6983 91.702 63.5993C92.1813 63.3225 92.3793 62.7488 92.1993 62.247L92.1138 62.0625L88.669 56.0955L94.5145 52.7205ZM67.9083 46.614L69.1008 60.294L65.2083 58.044L62.8863 62.0625C62.7873 62.2335 62.7355 62.427 62.7355 62.625C62.7355 63.1763 63.1338 63.6375 63.658 63.732L63.8605 63.75H70.75V70.5H63.8605C59.5113 70.5 55.9855 66.9743 55.9855 62.625C55.9855 61.2435 56.35 59.8845 57.0408 58.6875L59.3605 54.669L55.4635 52.419L67.906 46.614H67.9083ZM81.4375 32.1803C82.6345 32.871 83.629 33.8655 84.3198 35.0625L86.6373 39.081L90.5365 36.831L89.344 50.511L76.897 44.706L80.794 42.456L78.4742 38.4375C78.3752 38.2665 78.2335 38.1225 78.0625 38.0258C77.5833 37.749 76.987 37.8638 76.6428 38.2733L76.5258 38.4375L73.0832 44.4045L67.2355 41.0295L70.678 35.0625C72.8538 31.296 77.671 30.0045 81.4375 32.1803Z" fill="white"/>
            </g>
        </g>
        <rect x="11" y="5" width="134" height="94" rx="33" stroke="url(#paint1_linear_408_284)" stroke-width="6"/>
    </g>
    <defs>
        <filter id="filter0_ddddd_408_284" x="0.5" y="0.5" width="155" height="127" filterUnits="userSpaceOnUse" color-interpolation-filters="sRGB">
            <feFlood flood-opacity="0" result="BackgroundImageFix"/>
            <feColorMatrix in="SourceAlpha" type="matrix" values="0 0 0 0 0 0 0 0 0 0 0 0 0 0 0 0 0 0 127 0" result="hardAlpha"/>
            <feOffset/>
            <feColorMatrix type="matrix" values="0 0 0 0 0 0 0 0 0 0 0 0 0 0 0 0 0 0 0.24 0"/>
            <feBlend mode="normal" in2="BackgroundImageFix" result="effect1_dropShadow_408_284"/>
            <feColorMatrix in="SourceAlpha" type="matrix" values="0 0 0 0 0 0 0 0 0 0 0 0 0 0 0 0 0 0 127 0" result="hardAlpha"/>
            <feOffset dy="1.5"/>
            <feGaussianBlur stdDeviation="1.5"/>
            <feColorMatrix type="matrix" values="0 0 0 0 0 0 0 0 0 0 0 0 0 0 0 0 0 0 0.24 0"/>
            <feBlend mode="normal" in2="effect1_dropShadow_408_284" result="effect2_dropShadow_408_284"/>
            <feColorMatrix in="SourceAlpha" type="matrix" values="0 0 0 0 0 0 0 0 0 0 0 0 0 0 0 0 0 0 127 0" result="hardAlpha"/>
            <feOffset dy="4.5"/>
            <feGaussianBlur stdDeviation="2.25"/>
            <feColorMatrix type="matrix" values="0 0 0 0 0 0 0 0 0 0 0 0 0 0 0 0 0 0 0.2 0"/>
            <feBlend mode="normal" in2="effect2_dropShadow_408_284" result="effect3_dropShadow_408_284"/>
            <feColorMatrix in="SourceAlpha" type="matrix" values="0 0 0 0 0 0 0 0 0 0 0 0 0 0 0 0 0 0 127 0" result="hardAlpha"/>
            <feOffset dy="10.5"/>
            <feGaussianBlur stdDeviation="3"/>
            <feColorMatrix type="matrix" values="0 0 0 0 0 0 0 0 0 0 0 0 0 0 0 0 0 0 0.12 0"/>
            <feBlend mode="normal" in2="effect3_dropShadow_408_284" result="effect4_dropShadow_408_284"/>
            <feColorMatrix in="SourceAlpha" type="matrix" values="0 0 0 0 0 0 0 0 0 0 0 0 0 0 0 0 0 0 127 0" result="hardAlpha"/>
            <feOffset dy="18"/>
            <feGaussianBlur stdDeviation="3.75"/>
            <feColorMatrix type="matrix" values="0 0 0 0 0 0 0 0 0 0 0 0 0 0 0 0 0 0 0.04 0"/>
            <feBlend mode="normal" in2="effect4_dropShadow_408_284" result="effect5_dropShadow_408_284"/>
            <feBlend mode="normal" in="SourceGraphic" in2="effect5_dropShadow_408_284" result="shape"/>
        </filter>
        <filter id="filter1_dd_408_284" x="38.5" y="16.5" width="78" height="78" filterUnits="userSpaceOnUse" color-interpolation-filters="sRGB">
            <feFlood flood-opacity="0" result="BackgroundImageFix"/>
            <feColorMatrix in="SourceAlpha" type="matrix" values="0 0 0 0 0 0 0 0 0 0 0 0 0 0 0 0 0 0 127 0" result="hardAlpha"/>
            <feOffset dy="3"/>
            <feColorMatrix type="matrix" values="0 0 0 0 0.309804 0 0 0 0 0.309804 0 0 0 0 0.309804 0 0 0 0.6 0"/>
            <feBlend mode="normal" in2="BackgroundImageFix" result="effect1_dropShadow_408_284"/>
            <feColorMatrix in="SourceAlpha" type="matrix" values="0 0 0 0 0 0 0 0 0 0 0 0 0 0 0 0 0 0 127 0" result="hardAlpha"/>
            <feOffset dy="3"/>
            <feGaussianBlur stdDeviation="6"/>
            <feColorMatrix type="matrix" values="0 0 0 0 0 0 0 0 0 0 0 0 0 0 0 0 0 0 0.25 0"/>
            <feBlend mode="normal" in2="effect1_dropShadow_408_284" result="effect2_dropShadow_408_284"/>
            <feBlend mode="normal" in="SourceGraphic" in2="effect2_dropShadow_408_284" result="shape"/>
        </filter>
        <filter id="filter2_d_408_284" x="55.4635" y="31.1234" width="43.5527" height="46.8766" filterUnits="userSpaceOnUse" color-interpolation-filters="sRGB">
            <feFlood flood-opacity="0" result="BackgroundImageFix"/>
            <feColorMatrix in="SourceAlpha" type="matrix" values="0 0 0 0 0 0 0 0 0 0 0 0 0 0 0 0 0 0 127 0" result="hardAlpha"/>
            <feOffset dy="3"/>
            <feComposite in2="hardAlpha" operator="out"/>
            <feColorMatrix type="matrix" values="0 0 0 0 0.309804 0 0 0 0 0.309804 0 0 0 0 0.309804 0 0 0 0.6 0"/>
            <feBlend mode="normal" in2="BackgroundImageFix" result="effect1_dropShadow_408_284"/>
            <feBlend mode="normal" in="SourceGraphic" in2="effect1_dropShadow_408_284" result="shape"/>
        </filter>
        <linearGradient id="paint0_linear_408_284" x1="78" y1="2" x2="78" y2="102" gradientUnits="userSpaceOnUse">
            <stop stop-color="#96C720"/>
            <stop offset="1" stop-color="#618F15"/>
        </linearGradient>
        <linearGradient id="paint1_linear_408_284" x1="78" y1="2" x2="78" y2="102" gradientUnits="userSpaceOnUse">
            <stop stop-color="#6E6F44"/>
            <stop offset="1" stop-color="#55451B"/>
        </linearGradient>
        <clipPath id="clip0_408_284">
            <rect width="54" height="54" fill="white" transform="translate(50.5 25.5)"/>
        </clipPath>
    </defs>
</svg>
